<?xml version="1.0" encoding="UTF-8" standalone="no"?>
<svg
   width="32"
   height="32"
   viewBox="0 0 24 24"
   version="1.1"
   id="svg51"
   sodipodi:docname="Javascript.svg"
   inkscape:version="1.1.2 (0a00cf5339, 2022-02-04)"
   xmlns:inkscape="http://www.inkscape.org/namespaces/inkscape"
   xmlns:sodipodi="http://sodipodi.sourceforge.net/DTD/sodipodi-0.dtd"
   xmlns="http://www.w3.org/2000/svg"
   xmlns:svg="http://www.w3.org/2000/svg">
  <defs
     id="defs55" />
  <sodipodi:namedview
     id="namedview53"
     pagecolor="#ffffff"
     bordercolor="#666666"
     borderopacity="1.0"
     inkscape:pageshadow="2"
     inkscape:pageopacity="0.0"
     inkscape:pagecheckerboard="0"
     showgrid="false"
     inkscape:zoom="26.0625"
     inkscape:cx="14.35012"
     inkscape:cy="16"
     inkscape:window-width="1920"
     inkscape:window-height="1043"
     inkscape:window-x="0"
     inkscape:window-y="0"
     inkscape:window-maximized="1"
     inkscape:current-layer="svg51" />
  <path
     fill="currentColor"
     d="M3 3h18v18H3zm4.73 15.04c.4.85 1.19 1.55 2.54 1.55c1.5 0 2.53-.8 2.53-2.55v-5.78h-1.7V17c0 .86-.35 1.08-.9 1.08c-.58 0-.82-.4-1.09-.87zm5.98-.18c.5.98 1.51 1.73 3.09 1.73c1.6 0 2.8-.83 2.8-2.36c0-1.41-.81-2.04-2.25-2.66l-.42-.18c-.73-.31-1.04-.52-1.04-1.02c0-.41.31-.73.81-.73c.48 0 .8.21 1.09.73l1.31-.87c-.55-.96-1.33-1.33-2.4-1.33c-1.51 0-2.48.96-2.48 2.23c0 1.38.81 2.03 2.03 2.55l.42.18c.78.34 1.24.55 1.24 1.13c0 .48-.45.83-1.15.83c-.83 0-1.31-.43-1.67-1.03z"
     id="path49"
     style="fill:#f0d24f;fill-opacity:1" />
  <path
     style="fill:none;stroke:#cc0000;stroke-width:1.125;stroke-linecap:butt;stroke-linejoin:miter;stroke-opacity:1;stroke-miterlimit:4;stroke-dasharray:none"
     d="M 0.0033723,0.0245054 24.047774,24.048448"
     id="path1410" />
  <path
     style="fill:none;stroke:#cc0000;stroke-width:1.125;stroke-linecap:butt;stroke-linejoin:miter;stroke-opacity:1;stroke-miterlimit:4;stroke-dasharray:none"
     d="M 0.01360185,24.058678 24.037544,0.01427585"
     id="path1591" />
</svg>
